# xmcd
#
# Track frame offsets:
#	150
#	20052
#	43655
#	64879
#	86481
#	102082
#	119131
#	137492
#	156523
#	177829
#	195624
#	216704
#	236009
#
# Disc length: 3381 seconds
#
# Revision: 1
# Processed by: cddbd v1.5.2PL0 Copyright (c) Steve Scherf et al.
# Submitted via: EZCDAudioConverter 3.1.4.1
#
DISCID=c30d330d
DTITLE=呂方 - Touching Moment
DYEAR=2011
DGENRE=Pop
TTITLE0=舊夢
TTITLE1=記得
TTITLE2=被遺忘的時光
TTITLE3=聽說愛情回來過
TTITLE4=心動
TTITLE5=紅豆
TTITLE6=意難忘
TTITLE7=眼淚
TTITLE8=城裡的月光
TTITLE9=七星岩
TTITLE10=不想讓你知道
TTITLE11=但願人長久
TTITLE12=七星岩 (特別版)
EXTD=
EXTT0=
EXTT1=
EXTT2=
EXTT3=
EXTT4=
EXTT5=
EXTT6=
EXTT7=
EXTT8=
EXTT9=
EXTT10=
EXTT11=
EXTT12=
PLAYORDER=
